<svg width="398" height="89" viewBox="0 0 398 89" fill="none" xmlns="http://www.w3.org/2000/svg">
<path d="M4.86549 86.1908C2.05299 86.1908 1.28385 84.9104 2.55808 82.3495L39.9757 7.44363C41.5519 4.30073 43.5705 2.72928 46.0314 2.72928H54.2346C56.6955 2.72928 58.3488 4.30073 59.1944 7.44363L79.1987 82.3495C79.8776 84.9104 78.8108 86.1908 75.9983 86.1908H66.6819C64.1038 86.1908 62.4625 84.8522 61.7581 82.1749L57.6013 66.5186H27.8357L20.0393 82.1749C18.7125 84.8522 16.76 86.1908 14.1819 86.1908H4.86549ZM34.9626 52.0845H53.8298L48.7741 33.5763C48.1673 31.4034 47.8226 29.832 47.74 28.8619C47.701 27.8531 47.6966 26.3787 47.7268 24.4386H47.4924C47.0716 26.3787 46.7049 27.8531 46.3924 28.8619C46.1234 29.832 45.4329 31.4034 44.321 33.5763L34.9626 52.0845ZM94.4835 86.1908C91.7491 86.1908 90.551 84.7358 90.8893 81.8257L99.5756 7.09442C99.9139 4.18433 101.45 2.72928 104.185 2.72928H126.099C140.161 2.72928 149.643 4.99915 154.545 9.5389C159.486 14.0786 161.472 20.5197 160.503 28.8619C159.533 37.2042 156.05 43.6452 150.053 48.185C144.096 52.7247 134.086 54.9946 120.024 54.9946H111.117L107.999 81.8257C107.66 84.7358 106.124 86.1908 103.39 86.1908H94.4835ZM112.768 40.7933H121.616C129.428 40.7933 134.847 39.8815 137.871 38.0578C140.9 36.1954 142.663 33.1301 143.159 28.8619C143.655 24.5938 142.603 21.5479 140.002 19.7242C137.406 17.8618 132.202 16.9305 124.389 16.9305H115.542L112.768 40.7933ZM173.496 86.1908C170.762 86.1908 169.564 84.7358 169.902 81.8257L178.588 7.09442C178.926 4.18433 180.463 2.72928 183.197 2.72928H205.111C219.174 2.72928 228.656 4.99915 233.558 9.5389C238.499 14.0786 240.485 20.5197 239.515 28.8619C238.545 37.2042 235.062 43.6452 229.066 48.185C223.109 52.7247 213.099 54.9946 199.036 54.9946H190.13L187.011 81.8257C186.673 84.7358 185.137 86.1908 182.402 86.1908H173.496ZM191.781 40.7933H200.628C208.441 40.7933 213.859 39.8815 216.884 38.0578C219.913 36.1954 221.675 33.1301 222.171 28.8619C222.667 24.5938 221.615 21.5479 219.015 19.7242C216.419 17.8618 211.214 16.9305 203.402 16.9305H194.554L191.781 40.7933ZM250.127 79.9632C247.917 78.1395 247.545 76.2965 249.012 74.434L254.308 67.6826C256.05 65.4709 258.231 65.3545 260.853 67.3334C262.864 68.8466 265.533 70.4181 268.859 72.0477C272.229 73.6386 275.867 74.434 279.773 74.434C282.508 74.434 285.181 74.1236 287.792 73.5028C290.403 72.882 292.476 71.6791 294.012 69.8943C295.548 68.1094 296.458 65.9947 296.742 63.5503C296.945 61.8042 296.83 60.2716 296.397 58.9523C295.965 57.6331 295.134 56.5466 293.905 55.693C292.676 54.8394 291.392 54.1216 290.054 53.5395C287.71 52.5307 284.72 51.5413 281.082 50.5712C277.489 49.5624 273.957 48.3596 270.486 46.9627C267.388 45.7211 264.618 44.0138 262.175 41.841C259.732 39.6681 257.927 37.2236 256.758 34.5075C255.589 31.7914 255.269 28.1635 255.797 23.6238C256.423 18.2304 258.718 13.613 262.68 9.77171C266.642 5.93038 270.972 3.4665 275.668 2.38007C280.365 1.29363 285.037 0.750414 289.686 0.750414C294.295 0.750414 298.96 1.44884 303.68 2.84568C308.44 4.24253 311.948 5.98859 314.204 8.08385C316.426 10.1403 316.815 12.0028 315.371 13.6712L309.888 20.0152C308.034 22.1881 305.865 22.3627 303.382 20.5391C301.798 19.375 299.586 18.0752 296.745 16.6395C293.943 15.2039 290.921 14.4861 287.679 14.4861C285.374 14.4861 283.223 14.6801 281.225 15.0681C279.265 15.4561 277.458 16.3873 275.802 17.8618C274.146 19.3362 273.192 21.1599 272.94 23.3328C272.696 25.428 273.045 27.1353 273.985 28.4545C274.93 29.735 276.028 30.705 277.28 31.3646C278.536 31.9854 279.822 32.5093 281.14 32.9361C285.201 34.2941 288.831 35.4969 292.029 36.5446C295.232 37.5534 298.168 38.6787 300.836 39.9203C304.539 41.6663 307.325 43.4124 309.192 45.1585C311.059 46.9045 312.481 49.2908 313.457 52.3173C314.473 55.3438 314.737 58.9523 314.25 63.1429C313.528 69.3511 310.939 74.4922 306.481 78.5664C302.027 82.6017 297.291 85.2014 292.273 86.3654C287.29 87.5682 282.493 88.1697 277.884 88.1697C271.087 88.1697 265.636 87.51 261.532 86.1908C257.423 84.9104 253.621 82.8345 250.127 79.9632ZM331.228 17.629C328.299 17.629 326.981 16.3679 327.274 13.8458L328.126 6.5124C328.419 3.99032 330.031 2.72928 332.96 2.72928H393.195C396.124 2.72928 397.443 3.99032 397.15 6.5124L396.297 13.8458C396.004 16.3679 394.393 17.629 391.463 17.629H369.9L362.303 82.9897C362.055 85.1238 360.955 86.1908 359.001 86.1908H347.751C345.798 86.1908 344.946 85.1238 345.194 82.9897L352.791 17.629H331.228Z" fill="#C078FF"/>
</svg>
